<?xml version="1.0" encoding="utf-8"?>
<!-- Generator: Adobe Illustrator 19.2.1, SVG Export Plug-In . SVG Version: 6.00 Build 0)  -->
<svg version="1.1" id="Calque_1" xmlns="http://www.w3.org/2000/svg" xmlns:xlink="http://www.w3.org/1999/xlink" x="0px" y="0px"
	 viewBox="0 0 165 170.8" style="enable-background:new 0 0 165 170.8;" xml:space="preserve">
<style type="text/css">
	.st0{fill:#1D71B8;stroke:#1D71B8;stroke-miterlimit:10;}
	.st1{fill:#1D1D1B;}
	.st2{enable-background:new    ;}
	.st3{fill:#D8D8D8;}
	.st4{clip-path:url(#SVGID_2_);enable-background:new    ;}
	.st5{fill:#767676;}
	.st6{fill:#777777;}
	.st7{fill:#787878;}
	.st8{fill:#797979;}
	.st9{clip-path:url(#SVGID_4_);enable-background:new    ;}
	.st10{clip-path:url(#SVGID_6_);enable-background:new    ;}
	.st11{clip-path:url(#SVGID_8_);enable-background:new    ;}
	.st12{clip-path:url(#SVGID_10_);enable-background:new    ;}
	.st13{clip-path:url(#SVGID_12_);enable-background:new    ;}
	.st14{clip-path:url(#SVGID_14_);enable-background:new    ;}
	.st15{clip-path:url(#SVGID_16_);enable-background:new    ;}
	.st16{clip-path:url(#SVGID_18_);enable-background:new    ;}
	.st17{clip-path:url(#SVGID_20_);enable-background:new    ;}
	.st18{clip-path:url(#SVGID_22_);enable-background:new    ;}
	.st19{clip-path:url(#SVGID_24_);enable-background:new    ;}
	.st20{clip-path:url(#SVGID_26_);enable-background:new    ;}
	.st21{clip-path:url(#SVGID_28_);enable-background:new    ;}
	.st22{clip-path:url(#SVGID_30_);enable-background:new    ;}
</style>
<path id="Fond" class="st0" d="M153,170.8H12c-6.6,0-12-5.4-12-12V12C0,5.4,5.4,0,12,0h141c6.6,0,12,5.4,12,12v146.8
	C165,165.4,159.6,170.8,153,170.8z"/>
<g id="Forme">
	<g>
		<path id="Fond_x5F_noir_6_" class="st1" d="M120.1,135H44.9c-6.6,0-12-5.4-12-12V47.8c0-6.6,5.4-12,12-12h75.2c6.6,0,12,5.4,12,12
			V123C132.1,129.6,126.7,135,120.1,135z"/>
		<g id="Pin_x5F_haut_6_">
			<rect x="49.1" y="24.5" class="st1" width="2.8" height="14.2"/>
			<rect x="56.2" y="24.5" class="st1" width="2.8" height="14.2"/>
			<rect x="63.3" y="24.5" class="st1" width="2.8" height="14.2"/>
			<rect x="70.4" y="24.5" class="st1" width="2.8" height="14.2"/>
			<rect x="77.5" y="24.5" class="st1" width="2.8" height="14.2"/>
			<rect x="84.6" y="24.5" class="st1" width="2.8" height="14.2"/>
			<rect x="91.7" y="24.5" class="st1" width="2.8" height="14.2"/>
			<rect x="98.8" y="24.5" class="st1" width="2.8" height="14.2"/>
			<rect x="105.9" y="24.5" class="st1" width="2.8" height="14.2"/>
			<rect x="113.1" y="24.5" class="st1" width="2.8" height="14.2"/>
			<rect x="120.2" y="24.5" class="st1" width="2.8" height="14.2"/>
			<rect x="42" y="24.5" class="st1" width="2.8" height="14.2"/>
		</g>
		<g id="Pin_x5F_bas_6_">
			<rect x="49.1" y="132.1" class="st1" width="2.8" height="14.2"/>
			<rect x="56.2" y="132.1" class="st1" width="2.8" height="14.2"/>
			<rect x="63.3" y="132.1" class="st1" width="2.8" height="14.2"/>
			<rect x="70.4" y="132.1" class="st1" width="2.8" height="14.2"/>
			<rect x="77.5" y="132.1" class="st1" width="2.8" height="14.2"/>
			<rect x="84.6" y="132.1" class="st1" width="2.8" height="14.2"/>
			<rect x="91.7" y="132.1" class="st1" width="2.8" height="14.2"/>
			<rect x="98.8" y="132.1" class="st1" width="2.8" height="14.2"/>
			<rect x="105.9" y="132.1" class="st1" width="2.8" height="14.2"/>
			<rect x="113.1" y="132.1" class="st1" width="2.8" height="14.2"/>
			<rect x="120.2" y="132.1" class="st1" width="2.8" height="14.2"/>
			<rect x="42" y="132.1" class="st1" width="2.8" height="14.2"/>
		</g>
		<g id="Pin_x5F_droit_6_">
			
				<rect x="134.9" y="46.4" transform="matrix(-1.836970e-16 1 -1 -1.836970e-16 189.7841 -82.8673)" class="st1" width="2.8" height="14.2"/>
			
				<rect x="134.9" y="53.5" transform="matrix(-1.836970e-16 1 -1 -1.836970e-16 196.8864 -75.7651)" class="st1" width="2.8" height="14.2"/>
			
				<rect x="134.9" y="60.6" transform="matrix(-1.836970e-16 1 -1 -1.836970e-16 203.9886 -68.6628)" class="st1" width="2.8" height="14.2"/>
			
				<rect x="134.9" y="67.7" transform="matrix(-1.836970e-16 1 -1 -1.836970e-16 211.0909 -61.5605)" class="st1" width="2.8" height="14.2"/>
			
				<rect x="134.9" y="74.8" transform="matrix(-1.836970e-16 1 -1 -1.836970e-16 218.1932 -54.4583)" class="st1" width="2.8" height="14.2"/>
			
				<rect x="134.9" y="81.9" transform="matrix(-1.836970e-16 1 -1 -1.836970e-16 225.2955 -47.356)" class="st1" width="2.8" height="14.2"/>
			
				<rect x="134.9" y="89" transform="matrix(-1.836970e-16 1 -1 -1.836970e-16 232.3977 -40.2537)" class="st1" width="2.8" height="14.2"/>
			
				<rect x="134.9" y="96.1" transform="matrix(-1.836970e-16 1 -1 -1.836970e-16 239.5 -33.1514)" class="st1" width="2.8" height="14.2"/>
			
				<rect x="134.9" y="103.2" transform="matrix(-1.836970e-16 1 -1 -1.836970e-16 246.6023 -26.0492)" class="st1" width="2.8" height="14.2"/>
			
				<rect x="134.9" y="110.3" transform="matrix(-1.836970e-16 1 -1 -1.836970e-16 253.7046 -18.9469)" class="st1" width="2.8" height="14.2"/>
			
				<rect x="134.9" y="117.4" transform="matrix(-1.836970e-16 1 -1 -1.836970e-16 260.8068 -11.8446)" class="st1" width="2.8" height="14.2"/>
			
				<rect x="134.9" y="39.3" transform="matrix(-1.836970e-16 1 -1 -1.836970e-16 182.6818 -89.9696)" class="st1" width="2.8" height="14.2"/>
		</g>
		<g id="Pin_x5F_gauche_6_">
			
				<rect x="27.3" y="46.4" transform="matrix(-1.836970e-16 1 -1 -1.836970e-16 82.1483 24.7685)" class="st1" width="2.8" height="14.2"/>
			
				<rect x="27.3" y="53.5" transform="matrix(-1.836970e-16 1 -1 -1.836970e-16 89.2505 31.8708)" class="st1" width="2.8" height="14.2"/>
			
				<rect x="27.3" y="60.6" transform="matrix(-1.836970e-16 1 -1 -1.836970e-16 96.3528 38.973)" class="st1" width="2.8" height="14.2"/>
			
				<rect x="27.3" y="67.7" transform="matrix(-1.836970e-16 1 -1 -1.836970e-16 103.4551 46.0753)" class="st1" width="2.8" height="14.2"/>
			
				<rect x="27.3" y="74.8" transform="matrix(-1.836970e-16 1 -1 -1.836970e-16 110.5574 53.1776)" class="st1" width="2.8" height="14.2"/>
			
				<rect x="27.3" y="81.9" transform="matrix(-1.836970e-16 1 -1 -1.836970e-16 117.6596 60.2798)" class="st1" width="2.8" height="14.2"/>
			
				<rect x="27.3" y="89" transform="matrix(-1.836970e-16 1 -1 -1.836970e-16 124.7619 67.3821)" class="st1" width="2.8" height="14.2"/>
			
				<rect x="27.3" y="96.1" transform="matrix(-1.836970e-16 1 -1 -1.836970e-16 131.8642 74.4844)" class="st1" width="2.8" height="14.2"/>
			
				<rect x="27.3" y="103.2" transform="matrix(-1.836970e-16 1 -1 -1.836970e-16 138.9665 81.5867)" class="st1" width="2.8" height="14.2"/>
			
				<rect x="27.3" y="110.3" transform="matrix(-1.836970e-16 1 -1 -1.836970e-16 146.0687 88.6889)" class="st1" width="2.8" height="14.2"/>
			
				<rect x="27.3" y="117.4" transform="matrix(-1.836970e-16 1 -1 -1.836970e-16 153.171 95.7912)" class="st1" width="2.8" height="14.2"/>
			
				<rect x="27.3" y="39.3" transform="matrix(-1.836970e-16 1 -1 -1.836970e-16 75.046 17.6662)" class="st1" width="2.8" height="14.2"/>
		</g>
	</g>
</g>
<g>
	<g class="st2">
		<g>
			<path class="st3" d="M117.9,95c0.1,0.1,0.3,0.2,0.4,0.3c0.1,0.1,0.2,0.3,0.3,0.5s0.1,0.4,0.2,0.6c0,0.2,0.1,0.5,0.1,0.7
				c0,0.4,0,0.9,0,1.3c-0.1,0.4-0.2,0.9-0.3,1.2c-0.2,0.4-0.4,0.7-0.6,0.9c-0.2,0.2-0.5,0.4-0.9,0.4c-0.1,0-0.2,0-0.4,0
				c-0.1,0-0.3-0.1-0.5-0.1c-0.2-0.1-0.4-0.1-0.7-0.2c-0.3-0.1-0.6-0.2-1.1-0.3c-0.4-0.1-0.8-0.2-1.3-0.3c-0.5-0.1-1-0.1-1.5-0.2
				c-0.6-0.1-1.1-0.1-1.8-0.2c-0.6,0-1.3-0.1-2-0.1c-0.3,1.8-0.5,3.6-0.8,5.4c-0.3,1.7-0.6,3.4-0.8,4.9c-0.3,1.5-0.6,3-0.9,4.3
				c-0.3,1.3-0.6,2.5-0.9,3.6c-0.1,0.4-0.3,0.8-0.6,1.1c-0.3,0.3-0.6,0.6-1,0.8c-0.4,0.2-0.8,0.4-1.3,0.5c-0.5,0.1-1,0.2-1.6,0.2
				c-1.1,0.1-2.4,0-3.7-0.2c-1.3-0.2-2.7-0.5-4.1-0.8c-1.4-0.4-2.8-0.8-4.1-1.3c-1.3-0.5-2.5-1-3.6-1.5c-1.6-0.8-3.4-1.6-5-2.4
				c-1.7-0.9-3.3-1.8-4.7-2.8c-1.4-1-2.6-1.9-3.5-2.9c-0.9-1-1.4-2-1.5-3c-0.1-1.4,0.8-2.7,2.4-4c1.6-1.3,4-2.5,6.8-3.6
				c2.8-1.1,6.1-2,9.5-2.8c3.4-0.8,7.1-1.4,10.6-1.7c0.4-3.3,0.8-6.7,1.1-10c0.3-3.3,0.6-6.7,0.8-9.9c0.2-3.2,0.4-6.3,0.5-9.2
				c0.1-2.9,0.2-5.6,0.2-8c-4.5,5-8.9,10.1-13,15.3c-4.1,5.2-7.9,10.5-11.5,15.9c-3.6,5.4-6.8,10.9-9.7,16.6
				c-2.9,5.7-5.5,11.5-7.7,17.4c-0.1,0.1-0.1,0.3-0.2,0.4c-0.1,0.1-0.2,0.2-0.3,0.3c-0.1,0.1-0.2,0.1-0.3,0.2
				c-0.1,0-0.2,0.1-0.4,0.1c-0.3,0-0.7-0.1-1.1-0.2c-0.4-0.2-0.7-0.5-1.1-0.9c-0.3-0.4-0.6-0.9-0.9-1.4c-0.2-0.6-0.4-1.2-0.4-2
				c-0.2-2.9,1.9-8.8,5.5-15.9c3.5-7.2,8.5-15.7,13.8-23.9c5.4-8.2,11.1-16,16.3-21.9c5.2-5.9,9.8-9.8,12.9-10
				c0.9-0.1,1.8,0,2.7,0.2c0.9,0.2,1.7,0.6,2.4,1.1c0.7,0.5,1.3,1.2,1.8,2.1c0.4,0.9,0.7,1.9,0.8,3.1c0.2,2.1,0.2,4.8,0.1,7.8
				c-0.1,3-0.2,6.4-0.4,10c-0.2,3.6-0.5,7.4-0.9,11.2c-0.4,3.8-0.8,7.7-1.3,11.5c1,0,1.9,0.1,2.8,0.2c0.9,0.1,1.7,0.2,2.5,0.4
				c0.8,0.1,1.5,0.3,2.2,0.5C116.7,94.5,117.3,94.7,117.9,95z M95.2,114.6c0.2-1.1,0.5-2.2,0.7-3.3c0.2-1.2,0.5-2.4,0.7-3.6
				c0.2-1.2,0.4-2.5,0.7-3.8c0.2-1.3,0.4-2.7,0.7-4c-1.9,0.2-3.8,0.4-5.7,0.7c-1.9,0.3-3.8,0.7-5.6,1.2c-1.8,0.5-3.6,1.1-5.3,1.7
				c-1.7,0.7-3.2,1.5-4.7,2.4c0.5,0.7,1.6,1.5,3,2.3c1.4,0.8,3.1,1.7,4.9,2.5c1.8,0.8,3.8,1.6,5.6,2.3
				C92.1,113.7,93.8,114.2,95.2,114.6"/>
		</g>
		<g class="st2">
			<defs>
				<path id="SVGID_1_" class="st2" d="M51.9,124.3C51.9,124.3,51.9,124.3,51.9,124.3c-0.1,0-0.1,0-0.1,0c0,0,0,0-0.1,0s0,0-0.1,0
					c-0.3,0-0.7-0.1-1.1-0.3c-0.4-0.2-0.7-0.5-1.1-0.9c-0.3-0.4-0.6-0.9-0.9-1.5c-0.2-0.6-0.4-1.2-0.4-2c-0.2-3,2-8.9,5.6-16.2
					c3.6-7.3,8.6-16,14.1-24.3c5.5-8.3,11.3-16.3,16.6-22.3c5.3-6,10-9.9,13.1-10.2l5.8-0.4c-3.1,0.2-7.7,4.1-12.9,10
					c-5.2,5.9-11,13.7-16.3,21.9c-5.4,8.2-10.3,16.7-13.8,23.9c-3.5,7.2-5.7,13-5.5,15.9c0.1,0.7,0.2,1.4,0.4,2
					c0.2,0.6,0.5,1,0.9,1.4c0.3,0.4,0.7,0.7,1.1,0.9c0.4,0.2,0.7,0.3,1.1,0.2c0,0,0,0,0.1,0s0,0,0.1,0c0,0,0,0,0.1,0c0,0,0,0,0.1,0
					C56.3,123.1,54.1,123.7,51.9,124.3z"/>
			</defs>
			<clipPath id="SVGID_2_">
				<use xlink:href="#SVGID_1_"  style="overflow:visible;"/>
			</clipPath>
			<g class="st4">
				<path class="st5" d="M51.9,124.3l6.6-1.8c0,0,0,0-0.1,0c0,0,0,0-0.1,0c0,0,0,0-0.1,0s0,0-0.1,0c-0.2,0-0.4,0-0.6-0.1
					c-0.2-0.1-0.4-0.1-0.6-0.3c-0.2-0.1-0.4-0.3-0.6-0.4c-0.2-0.2-0.4-0.4-0.6-0.6l-6.6,1.8c0.2,0.2,0.4,0.5,0.6,0.6
					c0.2,0.2,0.4,0.3,0.6,0.5c0.2,0.1,0.4,0.2,0.6,0.3c0.2,0.1,0.4,0.1,0.6,0.1c0,0,0,0,0.1,0s0,0,0.1,0
					C51.8,124.3,51.9,124.3,51.9,124.3C51.9,124.3,51.9,124.3,51.9,124.3"/>
				<path class="st5" d="M49.3,122.9l6.6-1.8c0,0-0.1-0.1-0.1-0.1s-0.1-0.1-0.1-0.2s-0.1-0.1-0.1-0.2c0-0.1-0.1-0.1-0.1-0.2
					l-6.7,1.8c0,0.1,0.1,0.1,0.1,0.2c0,0.1,0.1,0.1,0.1,0.2s0.1,0.1,0.1,0.2C49.2,122.8,49.3,122.8,49.3,122.9"/>
				<path class="st6" d="M48.9,122.3l6.7-1.8c0,0,0-0.1-0.1-0.1c0,0,0-0.1-0.1-0.2c0-0.1,0-0.1-0.1-0.2c0-0.1,0-0.1-0.1-0.2
					l-6.7,1.8c0,0.1,0,0.1,0.1,0.2c0,0.1,0,0.1,0.1,0.2s0,0.1,0.1,0.2C48.8,122.2,48.9,122.2,48.9,122.3"/>
				<path class="st6" d="M48.6,121.6l6.7-1.8c0-0.1,0-0.1-0.1-0.2c0-0.1,0-0.1-0.1-0.2c0-0.1,0-0.1,0-0.2c0-0.1,0-0.1,0-0.2
					l-6.7,1.7c0,0.1,0,0.1,0,0.2c0,0.1,0,0.1,0,0.2c0,0.1,0,0.1,0.1,0.2C48.6,121.5,48.6,121.6,48.6,121.6"/>
				<path class="st7" d="M48.4,121l6.7-1.7c0-0.1,0-0.1,0-0.2c0-0.1,0-0.1,0-0.2c0-0.1,0-0.1,0-0.2c0-0.1,0-0.1,0-0.2l-6.7,1.7
					c0,0.1,0,0.1,0,0.2c0,0.1,0,0.1,0,0.2c0,0.1,0,0.1,0,0.2S48.4,120.9,48.4,121"/>
				<path class="st7" d="M48.3,120.3l6.7-1.7c0,0,0-0.1,0-0.1c0,0,0-0.1,0-0.1c0,0,0-0.1,0-0.1c0,0,0-0.1,0-0.1c0,0,0,0,0-0.1
					c0,0,0,0,0-0.1c0,0,0,0,0-0.1c0,0,0,0,0-0.1l-6.7,1.7c0,0,0,0.1,0,0.1c0,0,0,0.1,0,0.1c0,0,0,0,0,0.1c0,0,0,0,0,0.1
					c0,0,0,0.1,0,0.1s0,0.1,0,0.1c0,0,0,0.1,0,0.1S48.3,120.2,48.3,120.3"/>
				<path class="st7" d="M48.2,119.5l6.7-1.7c0-0.1,0-0.2,0-0.2c0-0.1,0-0.2,0-0.2s0-0.2,0-0.3s0-0.2,0-0.3l-6.7,1.7
					c0,0.1,0,0.2,0,0.3s0,0.2,0,0.3c0,0.1,0,0.2,0,0.3S48.2,119.4,48.2,119.5"/>
				<path class="st8" d="M48.2,118.4l6.7-1.7c0-0.1,0-0.3,0.1-0.4c0-0.1,0-0.3,0.1-0.4c0-0.2,0.1-0.3,0.1-0.5c0-0.2,0.1-0.3,0.1-0.5
					l-6.7,1.7c0,0.2-0.1,0.3-0.1,0.5c0,0.2-0.1,0.3-0.1,0.5s-0.1,0.3-0.1,0.5C48.3,118.1,48.3,118.3,48.2,118.4"/>
				<path class="st8" d="M48.6,116.6l6.7-1.7c0.1-0.6,0.3-1.3,0.6-2c0.2-0.7,0.5-1.5,0.8-2.3c0.3-0.8,0.6-1.6,1-2.5
					c0.4-0.9,0.8-1.8,1.2-2.7l-6.6,1.5c-0.4,0.9-0.8,1.9-1.2,2.7c-0.4,0.9-0.7,1.7-1,2.5c-0.3,0.8-0.6,1.6-0.8,2.3
					C48.9,115.3,48.7,115.9,48.6,116.6"/>
				<path class="st8" d="M52.1,107l6.6-1.5c1.8-3.8,4-8.2,6.6-12.8c2.6-4.6,5.5-9.4,8.6-14c3.1-4.7,6.3-9.3,9.4-13.5
					c3.2-4.2,6.3-8,9.1-11l-6,0.6c-2.9,3.1-6.1,7-9.3,11.2c-3.2,4.3-6.5,8.9-9.6,13.7c-3.1,4.8-6.1,9.6-8.7,14.3
					C56.2,98.6,53.9,103.1,52.1,107"/>
				<path class="st8" d="M86.4,54.8l6-0.6c0.6-0.6,1.2-1.3,1.8-1.8c0.6-0.6,1.2-1.1,1.7-1.6c0.6-0.5,1.1-1,1.6-1.4
					c0.5-0.4,1-0.8,1.5-1.2l-5.9,0.5c-0.5,0.3-1,0.7-1.6,1.2c-0.5,0.4-1.1,0.9-1.7,1.4c-0.6,0.5-1.2,1.1-1.7,1.7
					C87.7,53.5,87.1,54.1,86.4,54.8"/>
				<path class="st8" d="M93.2,48.7l5.9-0.5c0.2-0.1,0.3-0.2,0.4-0.3c0.1-0.1,0.3-0.2,0.4-0.3s0.3-0.2,0.4-0.2s0.3-0.2,0.4-0.2
					L95,47.6c-0.1,0.1-0.3,0.1-0.4,0.2c-0.1,0.1-0.3,0.2-0.4,0.3c-0.1,0.1-0.3,0.2-0.4,0.3C93.6,48.5,93.4,48.6,93.2,48.7"/>
				<path class="st7" d="M95,47.6l5.9-0.4c0.1,0,0.2-0.1,0.3-0.1c0.1,0,0.2-0.1,0.3-0.1c0.1,0,0.2-0.1,0.2-0.1
					c0.1,0,0.2-0.1,0.2-0.1L96,47.1c-0.1,0-0.2,0.1-0.2,0.1c-0.1,0-0.2,0.1-0.3,0.1c-0.1,0-0.2,0.1-0.3,0.1
					C95.2,47.5,95.1,47.6,95,47.6"/>
				<path class="st7" d="M96,47.1l5.8-0.4c0.1,0,0.1,0,0.2-0.1c0.1,0,0.1,0,0.2-0.1s0.1,0,0.2-0.1c0.1,0,0.1,0,0.2,0l-5.8,0.4
					c-0.1,0-0.1,0-0.2,0c-0.1,0-0.1,0-0.2,0.1s-0.1,0-0.2,0.1C96.1,47.1,96.1,47.1,96,47.1"/>
				<path class="st7" d="M96.7,46.9l5.8-0.4c0.1,0,0.1,0,0.2,0c0.1,0,0.1,0,0.2,0c0.1,0,0.1,0,0.2,0s0.1,0,0.2,0l-5.8,0.4
					c-0.1,0-0.1,0-0.2,0c-0.1,0-0.1,0-0.2,0c-0.1,0-0.1,0-0.2,0S96.8,46.9,96.7,46.9"/>
				<path class="st6" d="M97.3,46.8l5.8-0.4c0,0,0,0,0.1,0s0,0,0.1,0c0,0,0,0,0.1,0c0,0,0,0,0.1,0l-5.8,0.4c0,0,0,0-0.1,0
					c0,0,0,0-0.1,0C97.5,46.8,97.4,46.8,97.3,46.8C97.4,46.8,97.4,46.8,97.3,46.8"/>
			</g>
		</g>
		<g class="st2">
			<defs>
				<path id="SVGID_3_" class="st2" d="M58.5,122.5c-2.2,0.6-4.4,1.2-6.6,1.8c0.1,0,0.2-0.1,0.3-0.1c0.1-0.1,0.2-0.1,0.3-0.2
					c0.1-0.1,0.2-0.2,0.2-0.3s0.1-0.2,0.2-0.3l6.6-1.8c-0.1,0.1-0.1,0.2-0.2,0.3c-0.1,0.1-0.1,0.2-0.2,0.3c-0.1,0.1-0.2,0.1-0.3,0.2
					C58.7,122.4,58.6,122.4,58.5,122.5z"/>
			</defs>
			<clipPath id="SVGID_4_">
				<use xlink:href="#SVGID_3_"  style="overflow:visible;"/>
			</clipPath>
			<g class="st9">
				<path class="st8" d="M52.9,123.3l6.6-1.8c0,0,0,0,0,0c0,0,0,0,0,0c0,0,0,0,0,0s0,0,0,0L52.9,123.3
					C52.9,123.4,52.9,123.4,52.9,123.3C52.9,123.4,52.9,123.4,52.9,123.3C52.9,123.4,52.9,123.4,52.9,123.3
					C52.9,123.4,52.9,123.3,52.9,123.3"/>
				<path class="st8" d="M52.9,123.4l6.6-1.8c0,0,0,0.1-0.1,0.1s0,0.1-0.1,0.1c0,0-0.1,0.1-0.1,0.1s-0.1,0.1-0.1,0.1l-6.6,1.8
					c0,0,0.1-0.1,0.1-0.1c0,0,0.1-0.1,0.1-0.1c0,0,0.1-0.1,0.1-0.1S52.8,123.5,52.9,123.4"/>
				<path class="st8" d="M52.6,123.9l6.6-1.8c0,0,0,0-0.1,0.1c0,0,0,0-0.1,0.1s0,0-0.1,0c0,0,0,0-0.1,0l-6.6,1.8c0,0,0,0,0.1,0
					c0,0,0,0,0.1,0C52.5,124,52.5,124,52.6,123.9C52.5,123.9,52.5,123.9,52.6,123.9"/>
				<path class="st8" d="M52.3,124.1l6.6-1.8c0,0,0,0,0,0c0,0,0,0,0,0s0,0,0,0c0,0,0,0,0,0l-6.6,1.8c0,0,0,0,0,0
					S52.2,124.2,52.3,124.1C52.2,124.1,52.3,124.1,52.3,124.1C52.3,124.1,52.3,124.1,52.3,124.1"/>
				<path class="st7" d="M52.2,124.2l6.6-1.8c0,0,0,0,0,0c0,0,0,0,0,0c0,0,0,0,0,0c0,0,0,0,0,0l-6.6,1.8c0,0,0,0,0,0
					C52.1,124.2,52.1,124.2,52.2,124.2C52.1,124.2,52.1,124.2,52.2,124.2C52.1,124.2,52.1,124.2,52.2,124.2"/>
				<path class="st7" d="M52,124.3l6.6-1.8c0,0,0,0,0,0c0,0,0,0,0,0s0,0,0,0c0,0,0,0,0,0L52,124.3C51.9,124.3,51.9,124.3,52,124.3
					C52,124.3,52,124.3,52,124.3C52,124.3,52,124.3,52,124.3C52,124.3,52,124.3,52,124.3"/>
			</g>
		</g>
		<g class="st2">
			<defs>
				<path id="SVGID_5_" class="st2" d="M82,102.8c2-0.5,4.1-1,6.1-1.4c-1,0.2-2.1,0.5-3.1,0.8c-1,0.3-2,0.6-3,1
					c-1,0.4-1.9,0.8-2.8,1.2c-0.9,0.4-1.7,0.9-2.5,1.4l-6.3,1.5c0.8-0.5,1.7-1,2.6-1.4c0.9-0.4,1.8-0.9,2.8-1.2c1-0.4,2-0.7,3-1
					C79.8,103.3,80.9,103,82,102.8z"/>
			</defs>
			<clipPath id="SVGID_6_">
				<use xlink:href="#SVGID_5_"  style="overflow:visible;"/>
			</clipPath>
			<g class="st10">
				<path class="st7" d="M82,102.8l6.1-1.4c-0.4,0.1-0.8,0.2-1.2,0.3c-0.4,0.1-0.8,0.2-1.2,0.3c-0.4,0.1-0.8,0.2-1.2,0.4
					c-0.4,0.1-0.8,0.3-1.2,0.4l-6.2,1.5c0.4-0.1,0.8-0.3,1.2-0.4c0.4-0.1,0.8-0.3,1.2-0.4c0.4-0.1,0.8-0.2,1.3-0.3
					C81.1,103,81.5,102.9,82,102.8"/>
				<path class="st7" d="M77,104.2l6.2-1.5c-0.3,0.1-0.7,0.2-1,0.4c-0.3,0.1-0.7,0.3-1,0.4c-0.3,0.1-0.6,0.3-1,0.4
					c-0.3,0.1-0.6,0.3-0.9,0.4l-6.2,1.5c0.3-0.2,0.6-0.3,0.9-0.4c0.3-0.1,0.6-0.3,1-0.4c0.3-0.1,0.7-0.3,1-0.4
					C76.3,104.5,76.6,104.3,77,104.2"/>
				<path class="st8" d="M73,105.9l6.2-1.5c-0.2,0.1-0.5,0.2-0.7,0.3c-0.2,0.1-0.4,0.2-0.7,0.4c-0.2,0.1-0.4,0.2-0.6,0.4
					c-0.2,0.1-0.4,0.3-0.6,0.4l-6.3,1.5c0.2-0.1,0.4-0.3,0.6-0.4c0.2-0.1,0.4-0.3,0.7-0.4c0.2-0.1,0.4-0.2,0.7-0.4
					C72.6,106.1,72.8,106,73,105.9"/>
			</g>
		</g>
		<g class="st2">
			<defs>
				<path id="SVGID_7_" class="st2" d="M70.4,107.3l6.3-1.5c0.5,0.7,1.6,1.5,3,2.3c1.4,0.8,3.1,1.7,4.9,2.5c1.8,0.8,3.8,1.6,5.6,2.3
					c1.8,0.7,3.6,1.2,5,1.6l-6,1.7c-1.4-0.4-3.2-1-5.1-1.7c-1.9-0.7-3.9-1.5-5.7-2.4c-1.9-0.8-3.6-1.7-5-2.6
					C72,108.8,70.9,108,70.4,107.3z"/>
			</defs>
			<clipPath id="SVGID_8_">
				<use xlink:href="#SVGID_7_"  style="overflow:visible;"/>
			</clipPath>
			<g class="st11">
				<path class="st5" d="M70.4,107.3l6.3-1.5c0.5,0.7,1.6,1.5,3,2.3c1.4,0.8,3.1,1.7,4.9,2.5c1.8,0.8,3.8,1.6,5.6,2.3
					c1.8,0.7,3.6,1.2,5,1.6l-6,1.7c-1.4-0.4-3.2-1-5.1-1.7c-1.9-0.7-3.9-1.5-5.7-2.4c-1.9-0.8-3.6-1.7-5-2.6
					C72,108.8,70.9,108,70.4,107.3"/>
			</g>
		</g>
		<g class="st2">
			<defs>
				<path id="SVGID_9_" class="st2" d="M89.3,116.3c0.2-1.1,0.5-2.2,0.7-3.4c0.2-1.2,0.5-2.4,0.7-3.7c0.2-1.3,0.5-2.6,0.7-3.9
					c0.2-1.3,0.4-2.7,0.7-4.1l5.9-1.4c-0.2,1.4-0.4,2.7-0.7,4c-0.2,1.3-0.4,2.6-0.7,3.8c-0.2,1.2-0.5,2.4-0.7,3.6
					c-0.2,1.2-0.5,2.3-0.7,3.3C93.4,115.1,91,115.8,89.3,116.3z"/>
			</defs>
			<clipPath id="SVGID_10_">
				<use xlink:href="#SVGID_9_"  style="overflow:visible;"/>
			</clipPath>
			<g class="st12">
				<path class="st8" d="M89.3,116.3l6-1.7c0-0.1,0-0.1,0-0.2c0-0.1,0-0.1,0-0.2c0-0.1,0-0.1,0-0.2c0-0.1,0-0.1,0-0.2l-6,1.7
					c0,0.1,0,0.1,0,0.2c0,0.1,0,0.1,0,0.2c0,0.1,0,0.1,0,0.2C89.3,116.2,89.3,116.2,89.3,116.3"/>
				<path class="st8" d="M89.4,115.6l6-1.7c0.2-1,0.4-2.1,0.7-3.2c0.2-1.1,0.4-2.3,0.6-3.4c0.2-1.2,0.4-2.4,0.6-3.6
					c0.2-1.2,0.4-2.5,0.6-3.8l-5.9,1.4c-0.2,1.3-0.4,2.6-0.6,3.9c-0.2,1.3-0.4,2.5-0.6,3.7c-0.2,1.2-0.4,2.4-0.7,3.5
					C89.9,113.5,89.6,114.5,89.4,115.6"/>
			</g>
		</g>
		<g class="st2">
			<defs>
				<path id="SVGID_11_" class="st2" d="M88,101.4c0.8-0.2,1.6-0.4,2.5-0.5c0.8-0.2,1.7-0.3,2.5-0.4c0.8-0.1,1.7-0.2,2.5-0.3
					c0.8-0.1,1.6-0.2,2.5-0.2l-5.9,1.4c-0.8,0.1-1.7,0.1-2.5,0.2c-0.8,0.1-1.7,0.2-2.5,0.3c-0.8,0.1-1.7,0.3-2.5,0.4
					c-0.8,0.2-1.7,0.3-2.5,0.5C84,102.3,86,101.8,88,101.4z"/>
			</defs>
			<clipPath id="SVGID_12_">
				<use xlink:href="#SVGID_11_"  style="overflow:visible;"/>
			</clipPath>
			<g class="st13">
				<path class="st5" d="M92,101.3l5.9-1.4c-0.8,0.1-1.6,0.1-2.5,0.2c-0.8,0.1-1.7,0.2-2.5,0.3c-0.8,0.1-1.7,0.3-2.5,0.4
					c-0.8,0.2-1.6,0.3-2.5,0.5l-6.1,1.4c0.8-0.2,1.7-0.4,2.5-0.5c0.8-0.2,1.7-0.3,2.5-0.4c0.8-0.1,1.7-0.2,2.5-0.3
					C90.4,101.4,91.2,101.3,92,101.3"/>
			</g>
		</g>
		<g class="st2">
			<defs>
				<path id="SVGID_13_" class="st2" d="M95.6,57l5.9-0.6c-4.5,5-8.9,10.1-13,15.3c-4.1,5.2-7.9,10.5-11.5,15.9
					c-3.6,5.4-6.8,10.9-9.7,16.6c-2.9,5.7-5.5,11.5-7.7,17.4l-6.6,1.8c2.2-6.1,4.9-12,7.9-17.7c3-5.8,6.3-11.4,9.9-16.9
					c3.6-5.5,7.5-10.9,11.7-16.2C86.5,67.3,90.9,62.1,95.6,57z"/>
			</defs>
			<clipPath id="SVGID_14_">
				<use xlink:href="#SVGID_13_"  style="overflow:visible;"/>
			</clipPath>
			<g class="st14">
				<path class="st8" d="M95.6,57l5.9-0.6c-3.9,4.3-7.6,8.7-11.2,13.1c-3.6,4.4-6.9,8.9-10.1,13.5c-3.2,4.6-6.2,9.2-8.9,13.9
					c-2.7,4.7-5.3,9.6-7.5,14.5l-6.5,1.6c2.3-5,4.8-9.9,7.6-14.8c2.8-4.8,5.8-9.5,9.1-14.2c3.2-4.6,6.7-9.2,10.3-13.7
					C87.8,65.8,91.6,61.3,95.6,57"/>
				<path class="st8" d="M57.2,112.9l6.5-1.6c-0.4,0.8-0.8,1.7-1.1,2.5c-0.4,0.8-0.7,1.7-1.1,2.6c-0.4,0.9-0.7,1.7-1,2.6
					c-0.3,0.9-0.7,1.7-1,2.6l-6.6,1.8c0.3-0.9,0.7-1.8,1-2.6c0.3-0.9,0.7-1.8,1.1-2.6c0.4-0.9,0.7-1.7,1.1-2.6
					C56.4,114.6,56.8,113.8,57.2,112.9"/>
			</g>
		</g>
		<g class="st2">
			<defs>
				<path id="SVGID_15_" class="st2" d="M95.9,121.9c-0.1,0-0.3,0.1-0.5,0.1s-0.3,0.1-0.5,0.1c-0.2,0-0.3,0.1-0.5,0.1
					c-0.2,0-0.3,0-0.5,0c-1.1,0.1-2.4,0-3.8-0.2c-1.4-0.2-2.8-0.5-4.2-0.8c-1.4-0.4-2.8-0.8-4.2-1.3c-1.3-0.5-2.6-1-3.7-1.5
					c-1.7-0.8-3.4-1.6-5.1-2.5c-1.7-0.9-3.3-1.8-4.8-2.8c-1.4-1-2.7-2-3.6-3c-0.9-1-1.5-2-1.5-3c-0.1-1.1,0.4-2.1,1.4-3.2
					c1-1,2.5-2,4.3-3c1.8-0.9,4-1.8,6.4-2.6c2.4-0.8,5-1.5,7.7-2.1L89,95c-2.7,0.6-5.3,1.3-7.6,2c-2.4,0.8-4.5,1.6-6.3,2.5
					c-1.8,0.9-3.2,1.9-4.2,2.9c-1,1-1.5,2.1-1.4,3.1c0.1,1,0.6,2,1.5,3c0.9,1,2.1,2,3.5,2.9c1.4,1,3,1.9,4.7,2.8
					c1.7,0.9,3.4,1.7,5,2.4c1.1,0.5,2.3,1,3.6,1.5c1.3,0.5,2.7,0.9,4.1,1.3c1.4,0.4,2.8,0.6,4.1,0.8c1.3,0.2,2.6,0.2,3.7,0.2
					c0.2,0,0.3,0,0.5,0c0.2,0,0.3,0,0.5-0.1s0.3-0.1,0.5-0.1c0.2,0,0.3-0.1,0.4-0.1C99.8,120.8,97.9,121.4,95.9,121.9z"/>
			</defs>
			<clipPath id="SVGID_16_">
				<use xlink:href="#SVGID_15_"  style="overflow:visible;"/>
			</clipPath>
			<g class="st15">
				<path class="st5" d="M95.9,121.9l5.8-1.8c-0.1,0-0.3,0.1-0.4,0.1c-0.2,0-0.3,0.1-0.5,0.1s-0.3,0.1-0.5,0.1c-0.2,0-0.3,0-0.5,0
					c-1.1,0.1-2.4,0-3.7-0.2c-1.3-0.2-2.7-0.5-4.1-0.8c-1.4-0.4-2.8-0.8-4.1-1.3c-1.3-0.5-2.5-1-3.6-1.5c-1.3-0.6-2.7-1.3-4.1-1.9
					c-1.4-0.7-2.7-1.4-4-2.2c-1.3-0.7-2.4-1.5-3.4-2.3c-1-0.8-1.8-1.6-2.4-2.4l-6.4,1.5c0.6,0.8,1.4,1.6,2.5,2.4
					c1,0.8,2.2,1.6,3.5,2.4c1.3,0.8,2.6,1.5,4,2.2c1.4,0.7,2.8,1.4,4.1,2c1.1,0.5,2.4,1.1,3.7,1.5c1.3,0.5,2.8,0.9,4.2,1.3
					c1.4,0.4,2.8,0.7,4.2,0.8c1.4,0.2,2.6,0.3,3.8,0.2c0.2,0,0.4,0,0.5,0c0.2,0,0.3,0,0.5-0.1c0.2,0,0.3-0.1,0.5-0.1
					S95.8,122,95.9,121.9"/>
				<path class="st5" d="M64,109.5l6.4-1.5c0-0.1-0.1-0.1-0.1-0.2c0-0.1-0.1-0.1-0.1-0.2c0-0.1-0.1-0.1-0.1-0.2
					c0-0.1-0.1-0.1-0.1-0.2l-6.4,1.5c0,0.1,0.1,0.1,0.1,0.2s0.1,0.1,0.1,0.2c0,0.1,0.1,0.1,0.1,0.2C63.9,109.3,64,109.4,64,109.5"/>
				<path class="st6" d="M63.5,108.7l6.4-1.5c0,0,0-0.1-0.1-0.1c0,0,0-0.1-0.1-0.1c0,0,0-0.1-0.1-0.1c0,0,0-0.1-0.1-0.1l-6.4,1.5
					c0,0,0,0.1,0.1,0.1c0,0,0,0.1,0.1,0.1s0,0.1,0.1,0.1S63.5,108.6,63.5,108.7"/>
				<path class="st6" d="M63.3,108.2l6.4-1.5c0,0,0-0.1,0-0.1c0,0,0-0.1,0-0.1c0,0,0-0.1,0-0.1s0-0.1,0-0.1l-6.4,1.5
					c0,0,0,0.1,0,0.1c0,0,0,0.1,0,0.1c0,0,0,0.1,0,0.1C63.3,108.1,63.3,108.1,63.3,108.2"/>
				<path class="st7" d="M63.2,107.7l6.4-1.5c0,0,0-0.1,0-0.1s0-0.1,0-0.1s0-0.1,0-0.1s0-0.1,0-0.1l-6.4,1.5c0,0,0,0.1,0,0.1
					s0,0.1,0,0.1C63.1,107.6,63.1,107.6,63.2,107.7C63.2,107.7,63.2,107.7,63.2,107.7"/>
				<path class="st7" d="M63.1,107.4l6.4-1.5c0,0,0,0,0-0.1s0,0,0-0.1c0,0,0,0,0-0.1c0,0,0,0,0-0.1c0,0,0,0,0,0c0,0,0,0,0,0s0,0,0,0
					c0,0,0,0,0,0l-6.4,1.5c0,0,0,0,0,0s0,0,0,0c0,0,0,0,0,0c0,0,0,0,0,0c0,0,0,0,0,0.1c0,0,0,0,0,0.1
					C63.1,107.3,63.1,107.3,63.1,107.4C63.1,107.3,63.1,107.4,63.1,107.4"/>
				<path class="st7" d="M63.1,107l6.4-1.5c0,0,0-0.1,0-0.1c0,0,0-0.1,0-0.1c0,0,0-0.1,0-0.1c0,0,0-0.1,0-0.1l-6.4,1.5
					c0,0,0,0.1,0,0.1c0,0,0,0.1,0,0.1S63.1,106.9,63.1,107C63.1,107,63.1,107,63.1,107"/>
				<path class="st8" d="M63.1,106.7l6.4-1.5c0,0,0-0.1,0-0.1c0,0,0-0.1,0-0.1c0,0,0-0.1,0-0.1c0,0,0-0.1,0-0.1l-6.4,1.5
					c0,0,0,0.1,0,0.1c0,0,0,0.1,0,0.1C63.1,106.5,63.1,106.5,63.1,106.7C63.1,106.6,63.1,106.6,63.1,106.7"/>
				<path class="st8" d="M63.1,106.3l6.4-1.5c0-0.1,0-0.1,0-0.2c0-0.1,0-0.1,0.1-0.2c0-0.1,0-0.1,0.1-0.2c0-0.1,0.1-0.1,0.1-0.2
					l-6.4,1.5c0,0.1-0.1,0.1-0.1,0.2s0,0.1-0.1,0.2c0,0.1,0,0.1-0.1,0.2C63.2,106.1,63.2,106.2,63.1,106.3"/>
				<path class="st8" d="M63.4,105.5l6.4-1.5c0.1-0.1,0.1-0.2,0.2-0.4c0.1-0.1,0.1-0.2,0.2-0.4c0.1-0.1,0.2-0.2,0.3-0.4
					c0.1-0.1,0.2-0.2,0.3-0.3l-6.4,1.4c-0.1,0.1-0.2,0.2-0.3,0.4c-0.1,0.1-0.2,0.2-0.3,0.4c-0.1,0.1-0.2,0.2-0.2,0.4
					C63.5,105.3,63.5,105.4,63.4,105.5"/>
				<path class="st8" d="M64.4,104.1l6.4-1.4c0.1-0.1,0.3-0.3,0.4-0.4c0.1-0.1,0.3-0.3,0.5-0.4c0.2-0.1,0.3-0.3,0.5-0.4
					s0.4-0.3,0.6-0.4l-6.4,1.4c-0.2,0.1-0.4,0.3-0.6,0.4c-0.2,0.1-0.4,0.3-0.5,0.4c-0.2,0.1-0.3,0.3-0.5,0.4
					C64.7,103.8,64.5,104,64.4,104.1"/>
				<path class="st8" d="M66.4,102.5l6.4-1.4c0.2-0.1,0.4-0.3,0.6-0.4c0.2-0.1,0.4-0.3,0.7-0.4c0.2-0.1,0.5-0.3,0.7-0.4
					c0.2-0.1,0.5-0.3,0.8-0.4l-6.3,1.4c-0.3,0.1-0.5,0.3-0.8,0.4c-0.3,0.1-0.5,0.3-0.7,0.4c-0.2,0.1-0.5,0.3-0.7,0.4
					C66.8,102.2,66.6,102.3,66.4,102.5"/>
				<path class="st7" d="M69.2,100.8l6.3-1.4c0.4-0.2,0.7-0.3,1.1-0.5c0.4-0.2,0.8-0.3,1.2-0.5c0.4-0.2,0.8-0.3,1.2-0.5
					c0.4-0.2,0.8-0.3,1.3-0.5L74,98.8c-0.4,0.2-0.9,0.3-1.3,0.5c-0.4,0.2-0.8,0.3-1.2,0.5c-0.4,0.2-0.8,0.3-1.2,0.5
					C70,100.5,69.6,100.6,69.2,100.8"/>
				<path class="st7" d="M74,98.8l6.2-1.4c0.6-0.2,1.2-0.4,1.8-0.6c0.6-0.2,1.3-0.4,1.9-0.6c0.6-0.2,1.3-0.4,2-0.5
					c0.7-0.2,1.3-0.3,2-0.5l-6.1,1.3c-0.7,0.2-1.4,0.3-2.1,0.5c-0.7,0.2-1.3,0.4-2,0.5c-0.7,0.2-1.3,0.4-1.9,0.6
					C75.3,98.4,74.6,98.6,74,98.8"/>
				<path class="st7" d="M81.9,96.6l6.1-1.3c0.1,0,0.2,0,0.3-0.1c0.1,0,0.2,0,0.3-0.1c0.1,0,0.2,0,0.3-0.1c0.1,0,0.2,0,0.3-0.1
					L83,96.4c-0.1,0-0.2,0-0.3,0.1c-0.1,0-0.2,0-0.3,0.1s-0.2,0-0.3,0.1S82,96.6,81.9,96.6"/>
			</g>
		</g>
		<g class="st2">
			<defs>
				<path id="SVGID_17_" class="st2" d="M83,96.4L89,95c0.8-0.2,1.6-0.3,2.4-0.5c0.8-0.2,1.6-0.3,2.4-0.4c0.8-0.1,1.6-0.2,2.4-0.4
					c0.8-0.1,1.6-0.2,2.4-0.3l-5.9,1.3c-0.8,0.1-1.6,0.2-2.5,0.3c-0.8,0.1-1.7,0.2-2.5,0.4c-0.8,0.1-1.7,0.3-2.5,0.4
					C84.6,96,83.8,96.2,83,96.4z"/>
			</defs>
			<clipPath id="SVGID_18_">
				<use xlink:href="#SVGID_17_"  style="overflow:visible;"/>
			</clipPath>
			<g class="st16">
				<path class="st5" d="M83,96.4L89,95c0.8-0.2,1.6-0.3,2.4-0.5c0.8-0.2,1.6-0.3,2.4-0.4c0.8-0.1,1.6-0.2,2.4-0.4
					c0.8-0.1,1.6-0.2,2.4-0.3l-5.9,1.3c-0.8,0.1-1.6,0.2-2.5,0.3c-0.8,0.1-1.7,0.2-2.5,0.4c-0.8,0.1-1.7,0.3-2.5,0.4
					C84.6,96,83.8,96.2,83,96.4"/>
			</g>
		</g>
		<g class="st2">
			<defs>
				<path id="SVGID_19_" class="st2" d="M101.8,120.2c-1.9,0.6-3.9,1.2-5.8,1.8c0.3-0.1,0.6-0.2,0.9-0.4c0.3-0.1,0.5-0.3,0.8-0.5
					c0.2-0.2,0.4-0.4,0.6-0.7s0.3-0.5,0.4-0.8c0.3-1.1,0.6-2.3,0.9-3.6c0.3-1.3,0.6-2.8,0.9-4.4c0.3-1.6,0.6-3.2,0.9-5
					c0.3-1.7,0.5-3.6,0.8-5.4l5.7-1.4c-0.3,1.8-0.5,3.6-0.8,5.4c-0.3,1.7-0.6,3.4-0.8,4.9c-0.3,1.5-0.6,3-0.9,4.3
					c-0.3,1.3-0.6,2.5-0.9,3.6c-0.1,0.3-0.2,0.6-0.3,0.8c-0.2,0.2-0.3,0.5-0.6,0.7c-0.2,0.2-0.5,0.4-0.7,0.5
					C102.4,120,102.1,120.1,101.8,120.2z"/>
			</defs>
			<clipPath id="SVGID_20_">
				<use xlink:href="#SVGID_19_"  style="overflow:visible;"/>
			</clipPath>
			<g class="st17">
				<path class="st8" d="M101.9,101.1l5.7-1.4c-0.2,1.4-0.4,2.8-0.6,4.2c-0.2,1.4-0.4,2.7-0.6,3.9c-0.2,1.3-0.4,2.5-0.7,3.6
					c-0.2,1.1-0.4,2.2-0.7,3.2l-5.8,1.7c0.2-1,0.5-2.1,0.7-3.3c0.2-1.2,0.5-2.4,0.7-3.7c0.2-1.3,0.4-2.6,0.7-4
					C101.5,104,101.7,102.5,101.9,101.1"/>
				<path class="st8" d="M99.3,116.3l5.8-1.7c-0.1,0.3-0.1,0.6-0.2,0.9c-0.1,0.3-0.1,0.6-0.2,0.8c-0.1,0.3-0.1,0.5-0.2,0.8
					c-0.1,0.3-0.1,0.5-0.2,0.7c0,0,0,0.1,0,0.1c0,0,0,0.1,0,0.1c0,0,0,0.1,0,0.1s0,0.1-0.1,0.1l-5.8,1.7c0,0,0-0.1,0.1-0.1
					c0,0,0-0.1,0-0.1c0,0,0-0.1,0-0.1c0,0,0-0.1,0-0.1c0.1-0.2,0.1-0.5,0.2-0.7c0.1-0.3,0.1-0.5,0.2-0.8s0.1-0.6,0.2-0.8
					C99.2,116.9,99.2,116.6,99.3,116.3"/>
				<path class="st8" d="M98.3,120.1l5.8-1.7c0,0.1-0.1,0.1-0.1,0.2s-0.1,0.1-0.1,0.2c0,0.1-0.1,0.1-0.1,0.2
					c-0.1,0.1-0.1,0.1-0.2,0.2l-5.8,1.7c0.1-0.1,0.1-0.1,0.2-0.2s0.1-0.1,0.1-0.2c0-0.1,0.1-0.1,0.1-0.2
					C98.3,120.2,98.3,120.1,98.3,120.1"/>
				<path class="st8" d="M97.8,120.9l5.8-1.7c0,0-0.1,0.1-0.1,0.1c0,0-0.1,0.1-0.1,0.1s-0.1,0.1-0.1,0.1c0,0-0.1,0.1-0.1,0.1
					l-5.8,1.8c0.1,0,0.1-0.1,0.1-0.1s0.1-0.1,0.1-0.1s0.1-0.1,0.1-0.1C97.7,121,97.7,120.9,97.8,120.9"/>
				<path class="st8" d="M97.2,121.3l5.8-1.8c0,0-0.1,0.1-0.1,0.1c0,0-0.1,0-0.1,0.1c0,0-0.1,0-0.1,0.1s-0.1,0-0.1,0.1l-5.8,1.8
					c0,0,0.1,0,0.1-0.1c0,0,0.1,0,0.1-0.1c0,0,0.1,0,0.1-0.1S97.2,121.4,97.2,121.3"/>
				<path class="st7" d="M96.7,121.6l5.8-1.8c0,0-0.1,0-0.1,0.1c0,0-0.1,0-0.1,0.1s-0.1,0-0.1,0.1c0,0-0.1,0-0.1,0.1l-5.8,1.8
					c0.1,0,0.1,0,0.1-0.1c0,0,0.1,0,0.1-0.1s0.1,0,0.1-0.1C96.6,121.7,96.7,121.7,96.7,121.6"/>
				<path class="st7" d="M96.2,121.9l5.8-1.8c0,0,0,0-0.1,0s0,0-0.1,0c0,0,0,0-0.1,0c0,0,0,0-0.1,0l-5.8,1.8c0,0,0,0,0.1,0
					s0,0,0.1,0C96.1,121.9,96.1,121.9,96.2,121.9C96.1,121.9,96.1,121.9,96.2,121.9"/>
			</g>
		</g>
		<g class="st2">
			<defs>
				<path id="SVGID_21_" class="st2" d="M92.9,94.8c0.4-3.4,0.8-6.8,1.1-10.2c0.3-3.4,0.6-6.8,0.9-10.1c0.2-3.3,0.4-6.4,0.5-9.4
					c0.1-3,0.2-5.7,0.2-8.2l5.9-0.6c0,2.4-0.1,5.1-0.2,8c-0.1,2.9-0.3,6-0.5,9.2c-0.2,3.2-0.5,6.5-0.8,9.9c-0.3,3.3-0.7,6.7-1.1,10
					C97,93.9,94.6,94.4,92.9,94.8z"/>
			</defs>
			<clipPath id="SVGID_22_">
				<use xlink:href="#SVGID_21_"  style="overflow:visible;"/>
			</clipPath>
			<g class="st18">
				<path class="st8" d="M92.9,94.8l5.9-1.3c0.2-1.4,0.3-2.7,0.5-4.1c0.2-1.4,0.3-2.7,0.4-4.1c0.1-1.4,0.3-2.7,0.4-4.1
					c0.1-1.4,0.2-2.7,0.4-4.1l-5.9,1c-0.1,1.4-0.2,2.7-0.4,4.1c-0.1,1.4-0.3,2.8-0.4,4.2c-0.1,1.4-0.3,2.8-0.5,4.2
					C93.2,92,93,93.4,92.9,94.8"/>
				<path class="st7" d="M94.6,78.1l5.9-1c0.2-1.9,0.3-3.9,0.4-5.7c0.1-1.9,0.2-3.7,0.3-5.4c0.1-1.8,0.1-3.4,0.2-5.1
					c0-1.6,0.1-3.1,0.1-4.6L95.6,57c0,1.5,0,3-0.1,4.6c0,1.6-0.1,3.4-0.2,5.2c-0.1,1.8-0.2,3.6-0.3,5.5
					C94.9,74.2,94.7,76.1,94.6,78.1"/>
			</g>
		</g>
		<g class="st2">
			<defs>
				<path id="SVGID_23_" class="st2" d="M111.6,102.4C111.6,102.4,111.6,102.4,111.6,102.4c-0.1,0-0.1,0-0.1,0c0,0,0,0-0.1,0
					c0,0,0,0-0.1,0c-0.1,0-0.2,0-0.4,0s-0.3-0.1-0.5-0.1c-0.2-0.1-0.4-0.1-0.7-0.2c-0.3-0.1-0.7-0.2-1.1-0.3
					c-0.4-0.1-0.9-0.2-1.3-0.3c-0.5-0.1-1-0.1-1.6-0.2c-0.6-0.1-1.2-0.1-1.8-0.2c-0.6,0-1.3-0.1-2-0.1l5.7-1.4c0.7,0,1.3,0.1,2,0.1
					c0.6,0,1.2,0.1,1.8,0.2c0.6,0.1,1.1,0.1,1.5,0.2c0.5,0.1,0.9,0.2,1.3,0.3c0.4,0.1,0.8,0.2,1.1,0.3c0.3,0.1,0.5,0.1,0.7,0.2
					c0.2,0.1,0.4,0.1,0.5,0.1c0.1,0,0.3,0,0.4,0c0,0,0,0,0.1,0c0,0,0,0,0.1,0c0,0,0,0,0.1,0c0,0,0,0,0.1,0
					C115.3,101.4,113.5,101.9,111.6,102.4z"/>
			</defs>
			<clipPath id="SVGID_24_">
				<use xlink:href="#SVGID_23_"  style="overflow:visible;"/>
			</clipPath>
			<g class="st19">
				<path class="st5" d="M111.6,102.4l5.6-1.4c0,0,0,0-0.1,0c0,0,0,0-0.1,0c0,0,0,0-0.1,0c0,0,0,0-0.1,0c-0.1,0-0.2,0-0.4,0
					c-0.1,0-0.3-0.1-0.5-0.1c-0.2-0.1-0.4-0.1-0.7-0.2c-0.3-0.1-0.6-0.2-1.1-0.3c-0.4-0.1-0.8-0.2-1.3-0.3c-0.5-0.1-1-0.1-1.5-0.2
					c-0.6-0.1-1.1-0.1-1.8-0.2c-0.6,0-1.3-0.1-2-0.1l-5.7,1.4c0.7,0,1.4,0.1,2,0.1c0.6,0,1.2,0.1,1.8,0.2c0.6,0.1,1.1,0.1,1.6,0.2
					c0.5,0.1,0.9,0.2,1.3,0.3c0.4,0.1,0.8,0.2,1.1,0.3c0.3,0.1,0.5,0.1,0.7,0.2c0.2,0.1,0.4,0.1,0.5,0.1s0.3,0,0.4,0c0,0,0,0,0.1,0
					c0,0,0,0,0.1,0C111.5,102.4,111.5,102.4,111.6,102.4C111.6,102.4,111.6,102.4,111.6,102.4"/>
			</g>
		</g>
		<g class="st2">
			<defs>
				<path id="SVGID_25_" class="st2" d="M102.9,94.5l5.7-1.3c1,0,1.9,0.1,2.8,0.2c0.9,0.1,1.7,0.2,2.5,0.4c0.8,0.1,1.5,0.3,2.2,0.5
					c0.7,0.2,1.3,0.5,1.9,0.7l-5.6,1.3c-0.6-0.3-1.2-0.5-1.9-0.8c-0.7-0.2-1.4-0.4-2.2-0.6c-0.8-0.2-1.7-0.3-2.5-0.4
					C104.8,94.6,103.8,94.5,102.9,94.5z"/>
			</defs>
			<clipPath id="SVGID_26_">
				<use xlink:href="#SVGID_25_"  style="overflow:visible;"/>
			</clipPath>
			<g class="st20">
				<path class="st5" d="M102.9,94.5l5.7-1.3c1,0,1.9,0.1,2.8,0.2c0.9,0.1,1.7,0.2,2.5,0.4c0.8,0.1,1.5,0.3,2.2,0.5
					c0.7,0.2,1.3,0.5,1.9,0.7l-5.6,1.3c-0.6-0.3-1.2-0.5-1.9-0.8c-0.7-0.2-1.4-0.4-2.2-0.6c-0.8-0.2-1.7-0.3-2.5-0.4
					C104.8,94.6,103.8,94.5,102.9,94.5"/>
			</g>
		</g>
		<g class="st2">
			<defs>
				<path id="SVGID_27_" class="st2" d="M117.2,101c-1.9,0.5-3.7,0.9-5.6,1.4c0.3-0.1,0.6-0.3,0.8-0.5c0.2-0.2,0.4-0.6,0.5-0.9
					c0.1-0.4,0.2-0.8,0.3-1.2s0.1-0.9,0-1.3c0-0.3,0-0.5-0.1-0.7s-0.1-0.4-0.2-0.6s-0.2-0.4-0.3-0.5s-0.2-0.2-0.4-0.3l5.6-1.3
					c0.1,0.1,0.3,0.2,0.4,0.3c0.1,0.1,0.2,0.3,0.3,0.5s0.1,0.4,0.2,0.6c0,0.2,0.1,0.5,0.1,0.7c0,0.4,0,0.8,0,1.3
					c-0.1,0.4-0.1,0.8-0.3,1.2c-0.1,0.4-0.3,0.7-0.5,0.9C117.8,100.7,117.5,100.9,117.2,101z"/>
			</defs>
			<clipPath id="SVGID_28_">
				<use xlink:href="#SVGID_27_"  style="overflow:visible;"/>
			</clipPath>
			<g class="st21">
				<path class="st5" d="M112.3,96.3l5.6-1.3c0,0,0.1,0,0.1,0.1c0,0,0.1,0.1,0.1,0.1c0,0,0.1,0.1,0.1,0.1s0.1,0.1,0.1,0.1l-5.5,1.3
					c0,0-0.1-0.1-0.1-0.1c0,0-0.1-0.1-0.1-0.1c0,0-0.1-0.1-0.1-0.1C112.4,96.4,112.4,96.4,112.3,96.3"/>
				<path class="st5" d="M112.8,96.7l5.5-1.3c0,0,0,0,0,0c0,0,0,0,0,0.1s0,0,0,0.1c0,0,0,0,0,0.1l-5.5,1.3c0,0,0,0,0-0.1s0,0,0-0.1
					C112.8,96.8,112.8,96.8,112.8,96.7C112.8,96.7,112.8,96.7,112.8,96.7"/>
				<path class="st6" d="M112.9,96.9l5.5-1.3c0,0,0,0,0,0.1c0,0,0,0,0,0.1c0,0,0,0,0,0.1c0,0,0,0,0,0.1l-5.5,1.3c0,0,0,0,0-0.1
					c0,0,0,0,0-0.1C113,97,113,97,112.9,96.9C112.9,97,112.9,96.9,112.9,96.9"/>
				<path class="st6" d="M113,97.2l5.5-1.3c0,0,0,0.1,0,0.1c0,0,0,0.1,0,0.1c0,0,0,0.1,0,0.1c0,0,0,0.1,0,0.1l-5.5,1.3
					c0,0,0-0.1,0-0.1c0,0,0-0.1,0-0.1C113.1,97.3,113.1,97.3,113,97.2C113.1,97.2,113,97.2,113,97.2"/>
				<path class="st7" d="M113.1,97.5l5.5-1.3c0,0,0,0.1,0,0.1c0,0,0,0.1,0,0.1c0,0,0,0.1,0,0.1s0,0.1,0,0.1l-5.5,1.3
					c0,0,0-0.1,0-0.1c0,0,0-0.1,0-0.1c0,0,0-0.1,0-0.1C113.2,97.6,113.1,97.6,113.1,97.5"/>
				<path class="st7" d="M113.2,98l5.5-1.3c0,0,0,0.1,0,0.1c0,0,0,0.1,0,0.1c0,0,0,0.1,0,0.1s0,0.1,0,0.1c0,0,0,0,0,0.1
					c0,0,0,0,0,0.1c0,0,0,0,0,0.1c0,0,0,0,0,0.1l-5.5,1.4c0,0,0,0,0-0.1c0,0,0,0,0-0.1s0,0,0-0.1s0,0,0-0.1c0,0,0-0.1,0-0.1
					c0,0,0-0.1,0-0.1c0,0,0-0.1,0-0.1C113.2,98.1,113.2,98.1,113.2,98"/>
				<path class="st7" d="M113.3,98.7l5.5-1.4c0,0.1,0,0.1,0,0.2c0,0.1,0,0.1,0,0.2c0,0.1,0,0.1,0,0.2c0,0.1,0,0.1,0,0.2l-5.5,1.4
					c0-0.1,0-0.1,0-0.2c0-0.1,0-0.1,0-0.2c0-0.1,0-0.1,0-0.2S113.3,98.8,113.3,98.7"/>
				<path class="st8" d="M113.3,99.5l5.5-1.4c0,0.1,0,0.1,0,0.2c0,0.1,0,0.1,0,0.2c0,0.1,0,0.1,0,0.2c0,0.1,0,0.1,0,0.2l-5.5,1.4
					c0-0.1,0-0.1,0-0.2s0-0.1,0-0.2s0-0.1,0-0.2S113.3,99.5,113.3,99.5"/>
				<path class="st8" d="M113.2,100.3l5.5-1.4c0,0.1,0,0.2-0.1,0.2s0,0.2-0.1,0.2c0,0.1-0.1,0.1-0.1,0.2s-0.1,0.1-0.1,0.2l-5.5,1.4
					c0-0.1,0.1-0.1,0.1-0.2s0.1-0.1,0.1-0.2c0-0.1,0-0.2,0.1-0.2C113.1,100.5,113.1,100.4,113.2,100.3"/>
				<path class="st8" d="M112.9,101.2l5.5-1.4c0,0.1-0.1,0.1-0.1,0.2s-0.1,0.1-0.1,0.2s-0.1,0.1-0.1,0.2s-0.1,0.1-0.1,0.2l-5.6,1.4
					c0,0,0.1-0.1,0.1-0.2c0-0.1,0.1-0.1,0.1-0.2s0.1-0.1,0.1-0.2C112.8,101.3,112.8,101.3,112.9,101.2"/>
				<path class="st8" d="M112.4,101.9l5.6-1.4c0,0,0,0-0.1,0.1c0,0,0,0-0.1,0.1c0,0,0,0-0.1,0.1c0,0-0.1,0-0.1,0.1l-5.6,1.4
					c0,0,0.1,0,0.1-0.1c0,0,0.1,0,0.1-0.1C112.3,102,112.3,102,112.4,101.9C112.3,102,112.4,102,112.4,101.9"/>
				<path class="st8" d="M112.1,102.2l5.6-1.4c0,0,0,0,0,0c0,0,0,0,0,0s0,0,0,0c0,0,0,0,0,0l-5.6,1.4c0,0,0,0,0,0
					C112,102.3,112,102.3,112.1,102.2C112,102.2,112,102.2,112.1,102.2C112.1,102.2,112.1,102.2,112.1,102.2"/>
				<path class="st7" d="M111.9,102.3l5.6-1.4c0,0,0,0,0,0c0,0,0,0,0,0c0,0,0,0,0,0c0,0,0,0,0,0l-5.6,1.4c0,0,0,0,0,0
					C111.8,102.3,111.8,102.3,111.9,102.3C111.8,102.3,111.9,102.3,111.9,102.3C111.9,102.3,111.9,102.3,111.9,102.3"/>
				<path class="st7" d="M111.7,102.4l5.6-1.4c0,0,0,0,0,0c0,0,0,0,0,0c0,0,0,0,0,0c0,0,0,0,0,0l-5.6,1.4
					C111.6,102.4,111.7,102.4,111.7,102.4C111.7,102.4,111.7,102.4,111.7,102.4C111.7,102.4,111.7,102.4,111.7,102.4
					C111.7,102.4,111.7,102.4,111.7,102.4"/>
			</g>
		</g>
		<g class="st2">
			<defs>
				<path id="SVGID_29_" class="st2" d="M97.6,46.8l5.8-0.4c0.9-0.1,1.8,0,2.7,0.2c0.9,0.2,1.7,0.6,2.4,1.1c0.7,0.5,1.3,1.2,1.8,2.1
					c0.4,0.9,0.7,1.9,0.8,3.1c0.2,2.1,0.2,4.8,0.1,7.8c-0.1,3-0.2,6.4-0.4,10c-0.2,3.6-0.5,7.4-0.9,11.2c-0.4,3.8-0.8,7.7-1.3,11.5
					l-5.7,1.3c0.5-3.8,0.9-7.8,1.3-11.7c0.4-3.9,0.7-7.7,0.9-11.4c0.2-3.6,0.4-7.1,0.5-10.1c0.1-3.1,0-5.8-0.1-7.9
					c-0.1-1.2-0.4-2.3-0.8-3.1c-0.5-0.9-1.1-1.6-1.8-2.1c-0.7-0.5-1.5-0.9-2.4-1.1C99.5,46.8,98.5,46.7,97.6,46.8z"/>
			</defs>
			<clipPath id="SVGID_30_">
				<use xlink:href="#SVGID_29_"  style="overflow:visible;"/>
			</clipPath>
			<g class="st22">
				<path class="st5" d="M97.6,46.8l5.8-0.4c0.6,0,1.2,0,1.8,0.1c0.6,0.1,1.2,0.2,1.7,0.4c0.6,0.2,1.1,0.5,1.5,0.8
					c0.5,0.3,0.9,0.8,1.3,1.3l-5.7,0.5c-0.4-0.5-0.8-0.9-1.3-1.3c-0.5-0.4-1-0.6-1.6-0.9c-0.6-0.2-1.2-0.4-1.8-0.4
					C98.9,46.7,98.2,46.7,97.6,46.8"/>
				<path class="st5" d="M104.1,49.4l5.7-0.5c0,0.1,0.1,0.1,0.1,0.2c0,0.1,0.1,0.1,0.1,0.2s0.1,0.1,0.1,0.2c0,0.1,0.1,0.1,0.1,0.2
					l-5.7,0.5c0-0.1-0.1-0.1-0.1-0.2c0-0.1-0.1-0.1-0.1-0.2c0-0.1-0.1-0.1-0.1-0.2C104.2,49.5,104.1,49.5,104.1,49.4"/>
				<path class="st6" d="M104.6,50.2l5.7-0.5c0,0.1,0.1,0.1,0.1,0.2c0,0.1,0.1,0.1,0.1,0.2c0,0.1,0.1,0.1,0.1,0.2s0.1,0.1,0.1,0.2
					l-5.7,0.5c0-0.1-0.1-0.1-0.1-0.2c0-0.1-0.1-0.1-0.1-0.2s-0.1-0.1-0.1-0.2C104.7,50.3,104.6,50.3,104.6,50.2"/>
				<path class="st6" d="M104.9,51l5.7-0.5c0,0.1,0,0.1,0.1,0.2c0,0.1,0,0.1,0.1,0.2s0,0.1,0.1,0.2c0,0.1,0,0.1,0.1,0.2l-5.7,0.5
					c0-0.1,0-0.1-0.1-0.2s0-0.1-0.1-0.2c0-0.1,0-0.1-0.1-0.2S105,51,104.9,51"/>
				<path class="st7" d="M105.2,51.7l5.7-0.5c0,0.1,0,0.1,0.1,0.2c0,0.1,0,0.1,0,0.2s0,0.1,0,0.2c0,0.1,0,0.1,0,0.2l-5.7,0.5
					c0-0.1,0-0.2,0-0.2c0-0.1,0-0.2,0-0.2c0-0.1,0-0.1,0-0.2C105.2,51.9,105.2,51.8,105.2,51.7"/>
				<path class="st7" d="M105.4,52.6l5.7-0.5c0,0.1,0,0.1,0,0.2c0,0.1,0,0.1,0,0.2s0,0.1,0,0.2s0,0.1,0,0.2c0,0.2,0,0.3,0,0.5
					c0,0.2,0,0.3,0,0.5c0,0.2,0,0.4,0,0.5c0,0.2,0,0.4,0,0.5l-5.7,0.6c0-0.2,0-0.4,0-0.6c0-0.2,0-0.4,0-0.5c0-0.2,0-0.4,0-0.5
					c0-0.2,0-0.3,0-0.5c0-0.1,0-0.1,0-0.2c0-0.1,0-0.1,0-0.2s0-0.1,0-0.2C105.4,52.8,105.4,52.7,105.4,52.6"/>
				<path class="st7" d="M105.5,55.5l5.7-0.6c0,1.3,0.1,2.8,0,4.3c0,1.6-0.1,3.2-0.1,5c-0.1,1.8-0.2,3.6-0.3,5.5
					c-0.1,1.9-0.3,3.9-0.4,5.9l-5.7,1c0.2-2,0.3-4.1,0.4-6c0.1-1.9,0.2-3.8,0.3-5.6c0.1-1.8,0.1-3.5,0.1-5.1
					C105.6,58.3,105.6,56.8,105.5,55.5"/>
				<path class="st8" d="M104.7,76.5l5.7-1c-0.1,1.4-0.2,2.9-0.4,4.4c-0.1,1.5-0.3,2.9-0.4,4.4c-0.2,1.5-0.3,3-0.5,4.4
					c-0.2,1.5-0.4,2.9-0.5,4.4l-5.7,1.3c0.2-1.5,0.4-3,0.5-4.5c0.2-1.5,0.3-3,0.5-4.5c0.2-1.5,0.3-3,0.4-4.5
					C104.5,79.5,104.6,78,104.7,76.5"/>
			</g>
		</g>
		<g>
			<path class="st3" d="M112.3,96.3c0.2,0.1,0.3,0.2,0.4,0.3s0.2,0.3,0.3,0.5s0.1,0.4,0.2,0.6s0.1,0.5,0.1,0.7c0,0.4,0,0.9,0,1.4
				c-0.1,0.4-0.2,0.9-0.3,1.2c-0.2,0.4-0.4,0.7-0.6,0.9c-0.3,0.2-0.6,0.4-0.9,0.4c-0.1,0-0.2,0-0.4,0s-0.3-0.1-0.5-0.1
				c-0.2-0.1-0.4-0.1-0.7-0.2c-0.3-0.1-0.7-0.2-1.1-0.3c-0.4-0.1-0.9-0.2-1.3-0.3c-0.5-0.1-1-0.1-1.6-0.2c-0.6-0.1-1.2-0.1-1.8-0.2
				c-0.6,0-1.3-0.1-2-0.1c-0.3,1.9-0.5,3.7-0.8,5.4c-0.3,1.7-0.6,3.4-0.9,5c-0.3,1.6-0.6,3-0.9,4.4c-0.3,1.3-0.6,2.6-0.9,3.6
				c-0.1,0.4-0.3,0.8-0.6,1.1c-0.3,0.3-0.6,0.6-1,0.8c-0.4,0.2-0.8,0.4-1.3,0.5c-0.5,0.1-1.1,0.2-1.6,0.2c-1.1,0.1-2.4,0-3.8-0.2
				c-1.4-0.2-2.8-0.5-4.2-0.8c-1.4-0.4-2.8-0.8-4.2-1.3c-1.3-0.5-2.6-1-3.7-1.5c-1.7-0.8-3.4-1.6-5.1-2.5c-1.7-0.9-3.3-1.8-4.8-2.8
				c-1.4-1-2.7-2-3.6-3c-0.9-1-1.5-2-1.5-3c-0.1-1.4,0.8-2.8,2.5-4.1c1.6-1.3,4-2.5,6.9-3.6c2.9-1.1,6.2-2.1,9.7-2.9
				c3.5-0.8,7.2-1.4,10.8-1.8c0.4-3.4,0.8-6.8,1.1-10.2c0.3-3.4,0.6-6.8,0.9-10.1c0.2-3.3,0.4-6.4,0.5-9.4c0.1-3,0.2-5.7,0.2-8.2
				c-4.6,5.1-9,10.3-13.2,15.6c-4.2,5.3-8.1,10.7-11.7,16.2c-3.6,5.5-6.9,11.1-9.9,16.9c-3,5.8-5.6,11.7-7.9,17.7
				c-0.1,0.2-0.1,0.3-0.2,0.4c-0.1,0.1-0.2,0.2-0.3,0.3s-0.2,0.1-0.3,0.2c-0.1,0-0.2,0.1-0.4,0.1c-0.3,0-0.7-0.1-1.1-0.3
				c-0.4-0.2-0.7-0.5-1.1-0.9c-0.3-0.4-0.6-0.9-0.9-1.5c-0.2-0.6-0.4-1.2-0.4-2c-0.2-3,2-8.9,5.6-16.2c3.6-7.3,8.6-16,14.1-24.3
				c5.5-8.3,11.3-16.3,16.6-22.3c5.3-6,10-9.9,13.1-10.2c0.9-0.1,1.9,0,2.8,0.2c0.9,0.2,1.7,0.6,2.4,1.1c0.7,0.5,1.3,1.2,1.8,2.1
				c0.5,0.9,0.8,1.9,0.8,3.1c0.2,2.2,0.2,4.9,0.1,7.9c-0.1,3.1-0.2,6.5-0.5,10.1c-0.2,3.6-0.6,7.5-0.9,11.4
				c-0.4,3.9-0.8,7.9-1.3,11.7c1,0,1.9,0.1,2.8,0.2c0.9,0.1,1.7,0.2,2.5,0.4c0.8,0.2,1.5,0.3,2.2,0.6
				C111.1,95.8,111.8,96.1,112.3,96.3z M89.3,116.3c0.2-1.1,0.5-2.2,0.7-3.4c0.2-1.2,0.5-2.4,0.7-3.7c0.2-1.3,0.5-2.6,0.7-3.9
				c0.2-1.3,0.4-2.7,0.7-4.1c-1.9,0.2-3.8,0.4-5.8,0.7c-1.9,0.3-3.9,0.7-5.7,1.2c-1.9,0.5-3.7,1.1-5.4,1.8c-1.7,0.7-3.3,1.5-4.7,2.4
				c0.5,0.7,1.6,1.5,3,2.3c1.4,0.8,3.2,1.7,5,2.6c1.9,0.8,3.9,1.7,5.7,2.4C86,115.3,87.8,115.9,89.3,116.3"/>
		</g>
	</g>
</g>
</svg>
