<svg id="Calque_1" data-name="Calque 1" xmlns="http://www.w3.org/2000/svg" viewBox="0 0 1361.02 285.28"><defs><style>.cls-1{font-size:112.07px;}.cls-1,.cls-2{font-family:MVBoli, MV Boli;}.cls-2{font-size:46.7px;}</style></defs><title>logo_ligne_header</title><text class="cls-1" transform="translate(290.11 129.04)">Anderson69s</text><text class="cls-2" transform="translate(290.11 224.57)">Don’t Worry, Be Happy with Technology</text><path d="M159.95,214.26c3-9.54,5.91-21.14,8.87-33.64-17.5.23-36.82,3-50.69,10.46C122.45,197.67,147,209.94,159.95,214.26Z" transform="translate(-4 -5.46)"/><path d="M280.93,51.89H254.42A27.42,27.42,0,0,0,234.5,32V5.46h-6.44V31.15h-9.7V5.46h-6.44V31.15h-9.7V5.46h-6.44V31.15h-9.7V5.46h-6.44V31.15h-9.7V5.46h-6.44V31.15h-9.7V5.46h-6.44V31.15h-9.7V5.46h-6.44V31.15h-9.7V5.46H115V31.15h-9.7V5.46H98.88V31.15h-9.7V5.46H82.73V31.15H73V5.46H66.58V31.15h-9.7V5.46H50.44V32A27.42,27.42,0,0,0,30.52,51.89H4v6.44H29.69s0,.06,0,.09V68H4v6.44H29.69v9.7H4v6.44H29.69v9.7H4v6.44H29.69v9.7H4v6.44H29.69v9.7H4v6.44H29.69v9.7H4v6.44H29.69v9.7H4v6.44H29.69v9.7H4v6.44H29.69v9.7H4v6.44H29.69v9.7H4v6.44H29.69v9.61s0,.06,0,.09H4V236H30.52a27.42,27.42,0,0,0,19.92,19.92v26.52h6.44V256.7h9.7v25.69H73V256.71h9.7v25.69h6.44V256.71h9.7v25.69h6.44V256.71H115v25.69h6.44V256.71h9.7v25.69h6.44V256.71h9.7v25.69h6.44V256.71h9.7v25.69h6.44V256.71h9.7v25.69h6.44V256.71h9.7v25.69h6.44V256.71h9.7v25.69h6.44V256.71h9.7v25.69h6.44V255.88A27.42,27.42,0,0,0,254.42,236h26.52v-6.44H255.24s0-.06,0-.09v-9.61h25.69v-6.44H255.25v-9.7h25.69v-6.44H255.25v-9.7h25.69v-6.44H255.25v-9.7h25.69v-6.44H255.25v-9.7h25.69v-6.44H255.25v-9.7h25.69v-6.44H255.25v-9.7h25.69v-6.44H255.25v-9.7h25.69v-6.44H255.25v-9.7h25.69V84.19H255.25v-9.7h25.69V68H255.25V58.43s0-.06,0-.09h25.69Zm-68,134.41c-1.14,0-2.27-.68-6.14-1.82a84.61,84.61,0,0,0-15.23-2.73c-3.64,16.82-7.5,31.82-10.91,41.37-1.36,3.87-5.45,5.45-10.91,5.45-10.46,0-25.91-5.68-35.69-11.14-14.78-8-32.73-18.87-32.73-28,0-12.73,37.28-22.27,70.46-23.41,6.14-30.23,10.91-63,12.5-85.23-45.69,43.41-84.33,90-109.1,143.88a3.37,3.37,0,0,1-3,2c-3.18,0-7.27-4.09-7.27-10.91,0-27,97.05-157.74,125.69-157.74,8.64,0,16.82,5,16.82,16.14,0,19.77-5.68,58.19-12.73,92.74,8.86.91,16.36,2.73,21.36,5.68,1.36.68,1.82,2.73,1.82,5C217.91,181.76,216.09,186.31,212.91,186.31Z" transform="translate(-4 -5.46)"/></svg>